<svg fill="#000000" height="800px" width="800px" version="1.1" id="Layer_1" viewBox="0 0 512.08 512.08" xmlns="http://www.w3.org/2000/svg">
  <defs></defs>
  <g>
    <g>
      <path d="M 490.694 298.621 C 490.062 249.633 459.738 205.094 414.263 183.974 C 401.513 178.051 388.711 174.463 375.859 173.025 C 382 156.72 384.81 139.093 383.85 121.038 C 380.359 55.765 326.351 2.585 261.023 0.096 C 188.293 -2.686 128.03 55.445 128.03 127.995 C 128.03 143.626 130.857 158.833 136.205 173.027 C 123.359 174.466 110.565 178.054 97.816 183.976 C 52.343 205.095 22.019 249.634 21.386 298.622 C 20.465 370.018 78.046 428.305 149.363 428.305 C 166.41 428.305 178.74 423.942 192.03 413.66 L 192.03 442.823 L 178.517 468.567 C 167.65 487.596 181.865 512.082 204.532 512.082 L 307.529 512.082 C 330.227 512.082 344.465 487.556 333.155 467.859 L 320.031 442.829 L 320.031 413.649 C 333.328 423.945 345.648 428.306 362.698 428.306 C 434.03 428.304 491.615 370.021 490.694 298.621 Z"></path>
    </g>
  </g>
</svg>