<svg fill="#000000" height="800px" width="800px" version="1.1" id="Layer_1" viewBox="-51.24 -51.24 614.85 614.85" stroke="#000000" stroke-width="0.0051237" bx:transform="rotate(0)" xmlns="http://www.w3.org/2000/svg" xmlns:bx="https://boxy-svg.com">
  <defs></defs>
  <g id="SVGRepo_bgCarrier" stroke-width="0"></g>
  <g id="SVGRepo_tracerCarrier" stroke-linecap="round" stroke-linejoin="round" stroke="#CCCCCC" stroke-width="1.02474"></g>
  <g id="SVGRepo_iconCarrier">
    <g>
      <g>
        <path d="M 475.524 72.933 C 441.652 36.64 403.402 16.153 359.941 16.153 C 317.633 16.153 280.858 35.486 256.199 68.43 C 231.608 35.462 194.991 16.153 152.709 16.153 C 109.545 16.153 71.935 36.428 37.28 72.769 C -14.59 127.126 -14.782 227.782 52.205 294.768 C 65.208 307.771 97.598 341.09 143.299 388.383 C 165.233 411.083 187.973 434.66 210.686 458.237 C 218.636 466.489 226.014 474.152 232.633 481.029 C 239.439 488.102 239.439 488.102 240.95 489.672 C 249.343 498.398 263.307 498.398 271.701 489.672 C 273.211 488.102 273.211 488.102 280.017 481.029 C 286.636 474.152 294.014 466.49 301.964 458.237 C 324.677 434.66 347.417 411.083 368.679 389.079 C 415.052 341.089 447.442 307.771 460.445 294.767 C 527.176 228.038 526.702 127.752 475.524 72.933 Z" style="fill: rgb(255, 0, 0);"></path>
      </g>
    </g>
  </g>
</svg>