<svg fill="#000000" height="800px" width="800px" version="1.1" id="Layer_1" viewBox="0 0 511.868 511.868" xmlns="http://www.w3.org/2000/svg">
  <defs></defs>
  <g>
    <g>
      <path d="M 442.751 177.893 L 287.006 12.646 C 268.919 -4.031 242.839 -4.031 225.848 11.565 L 65.818 178.785 C 19.14 222.049 6.569 290.774 40.378 353.765 C 65.131 399.857 100.952 426.471 148.471 428.29 C 167.09 429.005 179.904 426.493 192.552 419.28 C 192.277 426.692 190.533 431.024 184.016 442.419 L 169.587 467.691 C 158.301 487.346 172.565 511.869 195.239 511.869 L 317.308 511.869 C 339.975 511.869 354.19 487.383 342.965 467.7 L 328.511 442.421 C 322.602 432.058 320.626 427.538 320.109 421.234 C 330.365 426.767 342.05 428.925 357.828 428.289 C 404.481 426.369 443.338 401.445 468.548 359.644 C 507.012 295.915 493.167 224.665 442.751 177.893 Z"></path>
    </g>
  </g>
</svg>